<svg width="23" height="21" viewBox="0 0 23 21" fill="none" xmlns="http://www.w3.org/2000/svg">
<path d="M22.5 19.5V21H0V19.5H1.5V12.75C1.5 12.2344 1.59766 11.75 1.79297 11.2969C1.98828 10.8438 2.25391 10.4492 2.58984 10.1133C2.92578 9.77734 3.32422 9.50781 3.78516 9.30469C4.24609 9.10156 4.73438 9 5.25 9H10.5V4.875C10.5 4.80469 10.5273 4.74609 10.582 4.69922C10.6367 4.65234 10.707 4.61328 10.793 4.58203C10.8789 4.55078 10.9648 4.53125 11.0508 4.52344C11.1367 4.51562 11.2031 4.50781 11.25 4.5C11.2969 4.5 11.3633 4.50391 11.4492 4.51172C11.5352 4.51953 11.6172 4.53906 11.6953 4.57031C11.7734 4.60156 11.8438 4.64062 11.9062 4.6875C11.9688 4.73438 12 4.79688 12 4.875V9H17.25C17.7656 9 18.25 9.09766 18.7031 9.29297C19.1562 9.48828 19.5508 9.75781 19.8867 10.1016C20.2227 10.4453 20.4922 10.8438 20.6953 11.2969C20.8984 11.75 21 12.2344 21 12.75V19.5H22.5ZM5.25 10.5C4.96094 10.5 4.6875 10.5508 4.42969 10.6523C4.17188 10.7539 3.94531 10.8945 3.75 11.0742C3.55469 11.2539 3.39062 11.4648 3.25781 11.707C3.125 11.9492 3.04297 12.2148 3.01172 12.5039C3.30078 12.8242 3.63672 13.0703 4.01953 13.2422C4.40234 13.4141 4.8125 13.5 5.25 13.5C5.76562 13.5 6.21094 13.3984 6.58594 13.1953C6.96094 12.9922 7.31641 12.6953 7.65234 12.3047C7.73828 12.2109 7.82422 12.1367 7.91016 12.082C7.99609 12.0273 8.10938 12 8.25 12C8.38281 12 8.49219 12.0273 8.57812 12.082C8.66406 12.1367 8.75391 12.2109 8.84766 12.3047C9.17578 12.6875 9.52734 12.9805 9.90234 13.1836C10.2773 13.3867 10.7266 13.4922 11.25 13.5C11.7656 13.5 12.2109 13.3984 12.5859 13.1953C12.9609 12.9922 13.3164 12.6953 13.6523 12.3047C13.7383 12.2109 13.8242 12.1367 13.9102 12.082C13.9961 12.0273 14.1094 12 14.25 12C14.3828 12 14.4922 12.0273 14.5781 12.082C14.6641 12.1367 14.7539 12.2109 14.8477 12.3047C15.1758 12.6875 15.5273 12.9805 15.9023 13.1836C16.2773 13.3867 16.7266 13.4922 17.25 13.5C17.6797 13.5 18.0859 13.4141 18.4688 13.2422C18.8516 13.0703 19.1914 12.8242 19.4883 12.5039C19.457 12.2227 19.3789 11.9609 19.2539 11.7188C19.1289 11.4766 18.9648 11.2617 18.7617 11.0742C18.5586 10.8867 18.3281 10.7461 18.0703 10.6523C17.8125 10.5586 17.5391 10.5078 17.25 10.5H5.25ZM3 19.5H19.5V14.4023C19.125 14.5898 18.7617 14.7344 18.4102 14.8359C18.0586 14.9375 17.6719 14.9922 17.25 15C16.6875 15 16.1523 14.9062 15.6445 14.7188C15.1367 14.5312 14.6719 14.2461 14.25 13.8633C13.8281 14.2383 13.3633 14.5195 12.8555 14.707C12.3477 14.8945 11.8125 14.9922 11.25 15C10.6875 15 10.1523 14.9062 9.64453 14.7188C9.13672 14.5312 8.67188 14.2461 8.25 13.8633C7.82812 14.2383 7.36328 14.5195 6.85547 14.707C6.34766 14.8945 5.8125 14.9922 5.25 15C4.82812 15 4.44141 14.9492 4.08984 14.8477C3.73828 14.7461 3.375 14.5977 3 14.4023V19.5ZM11.25 3C11.0469 3 10.8711 2.92578 10.7227 2.77734C10.5742 2.62891 10.5 2.45312 10.5 2.25C10.5 2.15625 10.5312 2.03516 10.5938 1.88672C10.6562 1.73828 10.7266 1.58203 10.8047 1.41797C10.8828 1.25391 10.9648 1.09766 11.0508 0.949219C11.1367 0.800781 11.2031 0.683594 11.25 0.597656C11.2969 0.683594 11.3594 0.800781 11.4375 0.949219C11.5156 1.09766 11.5977 1.25391 11.6836 1.41797C11.7695 1.58203 11.8438 1.73828 11.9062 1.88672C11.9688 2.03516 12 2.15625 12 2.25C12 2.45312 11.9258 2.62891 11.7773 2.77734C11.6289 2.92578 11.4531 3 11.25 3Z" fill="#12919C"/>
</svg>
