<svg width="28" height="28" viewBox="0 0 28 28" fill="none" xmlns="http://www.w3.org/2000/svg">
<path d="M14 28C12.7083 28 11.4688 27.8333 10.2812 27.5C9.09375 27.1667 7.97917 26.6979 6.9375 26.0938C5.89583 25.4896 4.95312 24.7604 4.10938 23.9062C3.26562 23.0521 2.53646 22.1094 1.92188 21.0781C1.30729 20.0469 0.833333 18.9323 0.5 17.7344C0.166667 16.5365 0 15.2917 0 14C0 12.7083 0.166667 11.4688 0.5 10.2812C0.833333 9.09375 1.30208 7.97917 1.90625 6.9375C2.51042 5.89583 3.23958 4.95312 4.09375 4.10938C4.94792 3.26562 5.89062 2.53646 6.92188 1.92188C7.95312 1.30729 9.06771 0.833333 10.2656 0.5C11.4635 0.166667 12.7083 0 14 0C15.2917 0 16.5312 0.166667 17.7188 0.5C18.9062 0.833333 20.0208 1.30208 21.0625 1.90625C22.1042 2.51042 23.0469 3.23958 23.8906 4.09375C24.7344 4.94792 25.4635 5.89062 26.0781 6.92188C26.6927 7.95312 27.1667 9.06771 27.5 10.2656C27.8333 11.4635 28 12.7083 28 14C28 15.2917 27.8333 16.5312 27.5 17.7188C27.1667 18.9062 26.6979 20.0208 26.0938 21.0625C25.4896 22.1042 24.7604 23.0469 23.9062 23.8906C23.0521 24.7344 22.1094 25.4635 21.0781 26.0781C20.0469 26.6927 18.9323 27.1667 17.7344 27.5C16.5365 27.8333 15.2917 28 14 28ZM14 2C12.3438 2 10.7917 2.3125 9.34375 2.9375C7.89583 3.5625 6.625 4.42188 5.53125 5.51562C4.4375 6.60938 3.57812 7.88021 2.95312 9.32812C2.32812 10.776 2.01042 12.3333 2 14C2 15.6562 2.3125 17.2083 2.9375 18.6562C3.5625 20.1042 4.42188 21.375 5.51562 22.4688C6.60938 23.5625 7.88021 24.4219 9.32812 25.0469C10.776 25.6719 12.3333 25.9896 14 26C15.6562 26 17.2083 25.6875 18.6562 25.0625C20.1042 24.4375 21.375 23.5781 22.4688 22.4844C23.5625 21.3906 24.4219 20.1198 25.0469 18.6719C25.6719 17.224 25.9896 15.6667 26 14C26 12.3438 25.6875 10.7917 25.0625 9.34375C24.4375 7.89583 23.5781 6.625 22.4844 5.53125C21.3906 4.4375 20.1198 3.57812 18.6719 2.95312C17.224 2.32812 15.6667 2.01042 14 2ZM14 14V6H12V16H20V14H14Z" fill="#12919C"/>
</svg>
