<svg width="16" height="24" viewBox="0 0 16 24" fill="none" xmlns="http://www.w3.org/2000/svg">
<path d="M7.25 0C7.45312 0 7.62891 0.0742188 7.77734 0.222656C7.92578 0.371094 8 0.546875 8 0.75V9C8 9.41406 7.92188 9.80078 7.76562 10.1602C7.60938 10.5195 7.39453 10.8359 7.12109 11.1094C6.84766 11.3828 6.52734 11.5977 6.16016 11.7539C5.79297 11.9102 5.40625 11.9922 5 12V23.25C5 23.4531 4.92578 23.6289 4.77734 23.7773C4.62891 23.9258 4.45312 24 4.25 24C4.04688 24 3.87109 23.9258 3.72266 23.7773C3.57422 23.6289 3.5 23.4531 3.5 23.25V12C3.08594 12 2.69922 11.9219 2.33984 11.7656C1.98047 11.6094 1.66406 11.3945 1.39062 11.1211C1.11719 10.8477 0.902344 10.5312 0.746094 10.1719C0.589844 9.8125 0.507812 9.42188 0.5 9V0.75C0.5 0.546875 0.574219 0.371094 0.722656 0.222656C0.871094 0.0742188 1.04688 0 1.25 0C1.45312 0 1.62891 0.0742188 1.77734 0.222656C1.92578 0.371094 2 0.546875 2 0.75V9C2 9.21094 2.03906 9.40625 2.11719 9.58594C2.19531 9.76562 2.30078 9.92188 2.43359 10.0547C2.56641 10.1875 2.72656 10.2969 2.91406 10.3828C3.10156 10.4688 3.29688 10.5078 3.5 10.5V0.75C3.5 0.546875 3.57422 0.371094 3.72266 0.222656C3.87109 0.0742188 4.04688 0 4.25 0C4.45312 0 4.62891 0.0742188 4.77734 0.222656C4.92578 0.371094 5 0.546875 5 0.75V10.5C5.21094 10.5 5.40625 10.4609 5.58594 10.3828C5.76562 10.3047 5.92188 10.1992 6.05469 10.0664C6.1875 9.93359 6.29688 9.77344 6.38281 9.58594C6.46875 9.39844 6.50781 9.20312 6.5 9V0.75C6.5 0.546875 6.57422 0.371094 6.72266 0.222656C6.87109 0.0742188 7.04688 0 7.25 0ZM15.5 0V23.25C15.5 23.4531 15.4258 23.6289 15.2773 23.7773C15.1289 23.9258 14.9531 24 14.75 24C14.5469 24 14.3711 23.9258 14.2227 23.7773C14.0742 23.6289 14 23.4531 14 23.25V16.5C13.7109 16.5 13.3984 16.5039 13.0625 16.5117C12.7266 16.5195 12.3945 16.5156 12.0664 16.5C11.7383 16.4844 11.418 16.4375 11.1055 16.3594C10.793 16.2812 10.5195 16.1602 10.2852 15.9961C10.0508 15.832 9.85938 15.6094 9.71094 15.3281C9.5625 15.0469 9.49219 14.6875 9.5 14.25V5.25C9.5 4.52344 9.63672 3.84375 9.91016 3.21094C10.1836 2.57812 10.5586 2.02344 11.0352 1.54688C11.5117 1.07031 12.0664 0.695312 12.6992 0.421875C13.332 0.148438 14.0156 0.0078125 14.75 0H15.5ZM14 1.57031C13.5625 1.65625 13.1641 1.8125 12.8047 2.03906C12.4453 2.26562 12.1289 2.54688 11.8555 2.88281C11.582 3.21875 11.3711 3.58203 11.2227 3.97266C11.0742 4.36328 11 4.78906 11 5.25V14.25C11 14.4531 11.0742 14.6289 11.2227 14.7773C11.3711 14.9258 11.5469 15 11.75 15H14V1.57031Z" fill="#111111"/>
</svg>
