<svg width="24" height="24" viewBox="0 0 24 24" fill="none" xmlns="http://www.w3.org/2000/svg">
<path d="M12 0C13.1016 0 14.1641 0.140625 15.1875 0.421875C16.2109 0.703125 17.168 1.10547 18.0586 1.62891C18.9492 2.15234 19.7578 2.77734 20.4844 3.50391C21.2109 4.23047 21.8359 5.04297 22.3594 5.94141C22.8828 6.83984 23.2852 7.79688 23.5664 8.8125C23.8477 9.82812 23.9922 10.8906 24 12C24 13.1016 23.8594 14.1641 23.5781 15.1875C23.2969 16.2109 22.8945 17.168 22.3711 18.0586C21.8477 18.9492 21.2227 19.7578 20.4961 20.4844C19.7695 21.2109 18.957 21.8359 18.0586 22.3594C17.1602 22.8828 16.2031 23.2852 15.1875 23.5664C14.1719 23.8477 13.1094 23.9922 12 24C10.8984 24 9.83594 23.8594 8.8125 23.5781C7.78906 23.2969 6.83203 22.8945 5.94141 22.3711C5.05078 21.8477 4.24219 21.2227 3.51562 20.4961C2.78906 19.7695 2.16406 18.957 1.64062 18.0586C1.11719 17.1602 0.714844 16.207 0.433594 15.1992C0.152344 14.1914 0.0078125 13.125 0 12C0 10.8984 0.140625 9.83594 0.421875 8.8125C0.703125 7.78906 1.10547 6.83203 1.62891 5.94141C2.15234 5.05078 2.77734 4.24219 3.50391 3.51562C4.23047 2.78906 5.04297 2.16406 5.94141 1.64062C6.83984 1.11719 7.79297 0.714844 8.80078 0.433594C9.80859 0.152344 10.875 0.0078125 12 0ZM12 22.5C12.9609 22.5 13.8867 22.375 14.7773 22.125C15.668 21.875 16.5039 21.5234 17.2852 21.0703C18.0664 20.6172 18.7773 20.0664 19.418 19.418C20.0586 18.7695 20.6055 18.0625 21.0586 17.2969C21.5117 16.5312 21.8672 15.6953 22.125 14.7891C22.3828 13.8828 22.5078 12.9531 22.5 12C22.5 11.0391 22.375 10.1133 22.125 9.22266C21.875 8.33203 21.5234 7.49609 21.0703 6.71484C20.6172 5.93359 20.0664 5.22266 19.418 4.58203C18.7695 3.94141 18.0625 3.39453 17.2969 2.94141C16.5312 2.48828 15.6953 2.13281 14.7891 1.875C13.8828 1.61719 12.9531 1.49219 12 1.5C11.0391 1.5 10.1133 1.625 9.22266 1.875C8.33203 2.125 7.49609 2.47656 6.71484 2.92969C5.93359 3.38281 5.22266 3.93359 4.58203 4.58203C3.94141 5.23047 3.39453 5.9375 2.94141 6.70312C2.48828 7.46875 2.13281 8.30469 1.875 9.21094C1.61719 10.1172 1.49219 11.0469 1.5 12C1.5 12.9609 1.625 13.8867 1.875 14.7773C2.125 15.668 2.47656 16.5039 2.92969 17.2852C3.38281 18.0664 3.93359 18.7773 4.58203 19.418C5.23047 20.0586 5.9375 20.6055 6.70312 21.0586C7.46875 21.5117 8.30469 21.8672 9.21094 22.125C10.1172 22.3828 11.0469 22.5078 12 22.5ZM7.5 6C7.71094 6 7.90625 6.03906 8.08594 6.11719C8.26562 6.19531 8.42188 6.30078 8.55469 6.43359C8.6875 6.56641 8.79688 6.72656 8.88281 6.91406C8.96875 7.10156 9.00781 7.29688 9 7.5H6C6 7.28906 6.03906 7.09375 6.11719 6.91406C6.19531 6.73438 6.30078 6.57812 6.43359 6.44531C6.56641 6.3125 6.72656 6.20312 6.91406 6.11719C7.10156 6.03125 7.29688 5.99219 7.5 6ZM16.5 6C16.7109 6 16.9062 6.03906 17.0859 6.11719C17.2656 6.19531 17.4219 6.30078 17.5547 6.43359C17.6875 6.56641 17.7969 6.72656 17.8828 6.91406C17.9688 7.10156 18.0078 7.29688 18 7.5H15C15 7.28906 15.0391 7.09375 15.1172 6.91406C15.1953 6.73438 15.3008 6.57812 15.4336 6.44531C15.5664 6.3125 15.7266 6.20312 15.9141 6.11719C16.1016 6.03125 16.2969 5.99219 16.5 6ZM17.25 9C17.5625 9 17.8555 9.05859 18.1289 9.17578C18.4023 9.29297 18.6406 9.45312 18.8438 9.65625C19.0469 9.85938 19.207 10.0977 19.3242 10.3711C19.4414 10.6445 19.5 10.9375 19.5 11.25V12C19.5 13.0391 19.3047 14.0117 18.9141 14.918C18.5234 15.8242 17.9883 16.6211 17.3086 17.3086C16.6289 17.9961 15.8359 18.5312 14.9297 18.9141C14.0234 19.2969 13.0469 19.4922 12 19.5C10.9609 19.5 9.98828 19.3047 9.08203 18.9141C8.17578 18.5234 7.37891 17.9883 6.69141 17.3086C6.00391 16.6289 5.46875 15.8359 5.08594 14.9297C4.70312 14.0234 4.50781 13.0469 4.5 12C4.5 11.625 4.53125 11.2578 4.59375 10.8984C4.65625 10.5391 4.76953 10.2188 4.93359 9.9375C5.09766 9.65625 5.32422 9.42969 5.61328 9.25781C5.90234 9.08594 6.28125 9 6.75 9C7.32812 9 7.83203 9.07812 8.26172 9.23438C8.69141 9.39062 9.09766 9.5625 9.48047 9.75C9.86328 9.9375 10.2539 10.1094 10.6523 10.2656C11.0508 10.4219 11.5 10.5 12 10.5C12.5 10.5 12.9453 10.4219 13.3359 10.2656C13.7266 10.1094 14.1172 9.9375 14.5078 9.75C14.8984 9.5625 15.3086 9.39062 15.7383 9.23438C16.168 9.07812 16.6719 9 17.25 9ZM18 11.25C18 11.0469 17.9258 10.8711 17.7773 10.7227C17.6289 10.5742 17.4531 10.5 17.25 10.5C16.9141 10.5 16.6055 10.5352 16.3242 10.6055C16.043 10.6758 15.7734 10.7695 15.5156 10.8867C15.2578 11.0039 15 11.125 14.7422 11.25C14.4844 11.375 14.2188 11.4961 13.9453 11.6133C13.6719 11.7305 13.375 11.8203 13.0547 11.8828C12.7344 11.9453 12.3828 11.9844 12 12C11.6172 12 11.2695 11.9648 10.957 11.8945C10.6445 11.8242 10.3477 11.7305 10.0664 11.6133C9.78516 11.4961 9.51953 11.375 9.26953 11.25C9.01953 11.125 8.76172 11.0039 8.49609 10.8867C8.23047 10.7695 7.95703 10.6797 7.67578 10.6172C7.39453 10.5547 7.08594 10.5156 6.75 10.5C6.54688 10.5 6.37109 10.5742 6.22266 10.7227C6.07422 10.8711 6 11.0469 6 11.25V12C6 12.8281 6.15625 13.6055 6.46875 14.332C6.78125 15.0586 7.21094 15.6914 7.75781 16.2305C8.30469 16.7695 8.94141 17.1992 9.66797 17.5195C10.3945 17.8398 11.1719 18 12 18C12.8281 18 13.6055 17.8438 14.332 17.5312C15.0586 17.2188 15.6914 16.7891 16.2305 16.2422C16.7695 15.6953 17.1992 15.0586 17.5195 14.332C17.8398 13.6055 18 12.8281 18 12V11.25Z" fill="#111111"/>
</svg>
