<svg width="20" height="21" viewBox="0 0 20 21" fill="none" xmlns="http://www.w3.org/2000/svg">
<g clip-path="url(#clip0)">
<path d="M14.9991 0.504161L12.4055 0.5C9.49178 0.5 7.60877 2.4319 7.60877 5.42203V7.69141H5.00107C4.77574 7.69141 4.59326 7.87409 4.59326 8.09943V11.3875C4.59326 11.6128 4.77594 11.7953 5.00107 11.7953H7.60877V20.0922C7.60877 20.3175 7.79125 20.5 8.01658 20.5H11.4189C11.6442 20.5 11.8267 20.3173 11.8267 20.0922V11.7953H14.8757C15.101 11.7953 15.2835 11.6128 15.2835 11.3875L15.2848 8.09943C15.2848 7.99123 15.2417 7.88762 15.1653 7.81105C15.089 7.73448 14.9849 7.69141 14.8767 7.69141H11.8267V5.76763C11.8267 4.84298 12.047 4.37358 13.2515 4.37358L14.9987 4.37295C15.2238 4.37295 15.4063 4.19027 15.4063 3.96514V0.911972C15.4063 0.687052 15.224 0.504577 14.9991 0.504161Z" fill="#111111"/>
</g>
<defs>
<clipPath id="clip0">
<rect width="20.0002" height="20" fill="white" transform="translate(0 0.5)"/>
</clipPath>
</defs>
</svg>
