<svg width="20" height="21" viewBox="0 0 20 21" fill="none" xmlns="http://www.w3.org/2000/svg">
<path d="M19.79 9.4129C19.5845 8.98857 19.2419 8.64596 18.8176 8.44049L3.00875 0.790682C1.96734 0.28614 0.714149 0.721399 0.209608 1.76281C-0.0474307 2.29342 -0.0690382 2.9078 0.150146 3.45515L2.89912 10.3262L0.150146 17.198C-0.278033 18.276 0.24873 19.4969 1.32669 19.9251C1.57042 20.0219 1.83016 20.0722 2.09244 20.0734C2.40976 20.0734 2.72298 20.0018 3.00875 19.8639L18.8175 12.212C19.859 11.7075 20.2944 10.4544 19.79 9.4129ZM2.40043 18.6046C2.05324 18.7727 1.63553 18.6275 1.46746 18.2803C1.38181 18.1034 1.37469 17.8986 1.44778 17.7162L4.12411 11.0246H18.0653L2.40043 18.6046ZM4.12415 9.62779L1.44782 2.9362C1.33643 2.66946 1.40559 2.36143 1.62031 2.16795C1.82816 1.96542 2.142 1.91791 2.40043 2.04993L18.0653 9.62779H4.12415Z" fill="black"/>
</svg>
