<svg width="24" height="24" viewBox="0 0 24 24" fill="none" xmlns="http://www.w3.org/2000/svg">
<path d="M22.0664 7.5L23.5664 9L20.25 12.3047L16.5 8.56641L8.56641 16.5L12.3047 20.25L9 23.5664L7.5 22.0664L5.625 23.9297L3.375 21.6914C3.29688 21.7617 3.21875 21.8438 3.14062 21.9375C3.0625 22.0312 2.97656 22.1172 2.88281 22.1953C2.78906 22.2734 2.69141 22.3438 2.58984 22.4062C2.48828 22.4688 2.375 22.5 2.25 22.5C2.04688 22.5 1.87109 22.4258 1.72266 22.2773C1.57422 22.1289 1.5 21.9531 1.5 21.75C1.5 21.6328 1.52734 21.5234 1.58203 21.4219C1.63672 21.3203 1.70703 21.2227 1.79297 21.1289C1.87891 21.0352 1.96875 20.9492 2.0625 20.8711C2.15625 20.793 2.23828 20.7109 2.30859 20.625L0.0703125 18.375L1.93359 16.5L0.433594 15L3.75 11.6953L7.5 15.4336L15.4336 7.5L11.6953 3.75L15 0.433594L16.5 1.93359L18.375 0.0703125L20.625 2.30859C20.7031 2.23828 20.7812 2.15625 20.8594 2.0625C20.9375 1.96875 21.0234 1.88281 21.1172 1.80469C21.2109 1.72656 21.3086 1.65625 21.4102 1.59375C21.5117 1.53125 21.625 1.5 21.75 1.5C21.9531 1.5 22.1289 1.57422 22.2773 1.72266C22.4258 1.87109 22.5 2.04688 22.5 2.25C22.5 2.36719 22.4727 2.47656 22.418 2.57812C22.3633 2.67969 22.293 2.77734 22.207 2.87109C22.1211 2.96484 22.0312 3.05078 21.9375 3.12891C21.8438 3.20703 21.7617 3.28906 21.6914 3.375L23.9297 5.625L22.0664 7.5ZM6.43359 21L3 17.5664L2.19141 18.375L5.625 21.8086L6.43359 21ZM10.1953 20.25L3.75 13.8047L2.56641 15L9 21.4336L10.1953 20.25ZM17.5664 3L21 6.43359L21.8086 5.625L18.375 2.19141L17.5664 3ZM21.4336 9L15 2.56641L13.8047 3.75L20.25 10.1953L21.4336 9Z" fill="#111111"/>
</svg>
