<svg width="23" height="25" viewBox="0 0 23 25" fill="none" xmlns="http://www.w3.org/2000/svg">
<path d="M22.5 24.5H0L4.5 11H10.5V7.92969C10.0625 7.83594 9.66016 7.67578 9.29297 7.44922C8.92578 7.22266 8.60938 6.94922 8.34375 6.62891C8.07812 6.30859 7.87109 5.94141 7.72266 5.52734C7.57422 5.11328 7.5 4.6875 7.5 4.25C7.5 3.73438 7.59766 3.25 7.79297 2.79688C7.98828 2.34375 8.25391 1.94922 8.58984 1.61328C8.92578 1.27734 9.32422 1.00781 9.78516 0.804688C10.2461 0.601562 10.7344 0.5 11.25 0.5C11.7656 0.5 12.25 0.597656 12.7031 0.792969C13.1562 0.988281 13.5508 1.25781 13.8867 1.60156C14.2227 1.94531 14.4922 2.34375 14.6953 2.79688C14.8984 3.25 15 3.73438 15 4.25C15 4.69531 14.9258 5.12109 14.7773 5.52734C14.6289 5.93359 14.4219 6.29688 14.1562 6.61719C13.8906 6.9375 13.5742 7.21484 13.207 7.44922C12.8398 7.68359 12.4375 7.84375 12 7.92969V11H18L22.5 24.5ZM9 4.25C9 4.5625 9.05859 4.85547 9.17578 5.12891C9.29297 5.40234 9.45312 5.64062 9.65625 5.84375C9.85938 6.04688 10.0977 6.20703 10.3711 6.32422C10.6445 6.44141 10.9375 6.5 11.25 6.5C11.5625 6.5 11.8555 6.44141 12.1289 6.32422C12.4023 6.20703 12.6406 6.04688 12.8438 5.84375C13.0469 5.64062 13.207 5.40234 13.3242 5.12891C13.4414 4.85547 13.5 4.5625 13.5 4.25C13.5 3.9375 13.4414 3.64453 13.3242 3.37109C13.207 3.09766 13.0469 2.85938 12.8438 2.65625C12.6406 2.45312 12.4023 2.29297 12.1289 2.17578C11.8555 2.05859 11.5625 2 11.25 2C10.9375 2 10.6445 2.05859 10.3711 2.17578C10.0977 2.29297 9.85938 2.45312 9.65625 2.65625C9.45312 2.85938 9.29297 3.09766 9.17578 3.37109C9.05859 3.64453 9 3.9375 9 4.25ZM2.08594 23H20.4141L16.9219 12.5H12V18.125C12 18.1953 11.9727 18.2539 11.918 18.3008C11.8633 18.3477 11.793 18.3867 11.707 18.418C11.6211 18.4492 11.5391 18.4688 11.4609 18.4766C11.3828 18.4844 11.3125 18.4922 11.25 18.5C11.1953 18.5 11.1289 18.4961 11.0508 18.4883C10.9727 18.4805 10.8906 18.4609 10.8047 18.4297C10.7188 18.3984 10.6484 18.3594 10.5938 18.3125C10.5391 18.2656 10.5078 18.2031 10.5 18.125V12.5H5.57812L2.08594 23Z" fill="#111111"/>
</svg>
