<svg width="20" height="21" viewBox="0 0 20 21" fill="none" xmlns="http://www.w3.org/2000/svg">
<g clip-path="url(#clip0)">
<path d="M9.01588 14.5874C7.46541 14.4256 6.06744 14.0438 4.87055 13.1077C4.72204 12.9912 4.56871 12.879 4.43319 12.7489C3.90931 12.2457 3.85653 11.6695 4.27106 11.0757C4.62569 10.5675 5.22099 10.4316 5.83975 10.7233C5.95956 10.7799 6.07372 10.8505 6.18306 10.9263C8.41366 12.459 11.4779 12.5013 13.7169 10.9952C13.9387 10.8251 14.1759 10.6865 14.4507 10.6157C14.985 10.4785 15.4833 10.6747 15.7701 11.1423C16.0977 11.6762 16.0935 12.1974 15.6899 12.6119C15.0707 13.2474 14.326 13.7072 13.4987 14.0281C12.7163 14.3314 11.8594 14.4841 11.0112 14.5855C11.1392 14.7248 11.1996 14.7933 11.2796 14.8737C12.4312 16.0308 13.5879 17.1831 14.7358 18.3437C15.1268 18.7392 15.2085 19.2295 14.9932 19.6895C14.7578 20.1922 14.2307 20.523 13.714 20.4876C13.3866 20.465 13.1313 20.302 12.9044 20.0735C12.0353 19.199 11.1499 18.3406 10.2984 17.4495C10.0506 17.1904 9.93145 17.2394 9.71277 17.4644C8.83846 18.3644 7.94991 19.2507 7.05612 20.1319C6.65478 20.5276 6.1772 20.5988 5.71177 20.3728C5.21701 20.133 4.90218 19.6279 4.92648 19.1204C4.94324 18.7771 5.11206 18.5148 5.34771 18.2796C6.48742 17.1416 7.62398 16.0006 8.76096 14.8607C8.83616 14.7849 8.90633 14.7044 9.01588 14.5874Z" fill="#111111"/>
<path d="M9.96043 10.6233C7.19443 10.6139 4.92634 8.32084 4.94247 5.55045C4.95839 2.74947 7.22795 0.49227 10.0212 0.50002C12.8201 0.507561 15.0666 2.79723 15.0525 5.62732C15.0383 8.39206 12.7545 10.6329 9.96043 10.6233ZM12.4742 5.55715C12.4694 4.18159 11.3739 3.0865 10.0011 3.08525C8.61671 3.08378 7.51136 4.19877 7.52204 5.5869C7.5323 6.95722 8.63723 8.04456 10.0138 8.03953C11.3863 8.03471 12.4788 6.9325 12.4742 5.55715Z" fill="#111111"/>
</g>
<defs>
<clipPath id="clip0">
<rect width="20" height="20" fill="white" transform="translate(0 0.5)"/>
</clipPath>
</defs>
</svg>
