<svg width="22" height="33" viewBox="0 0 22 33" fill="none" xmlns="http://www.w3.org/2000/svg">
<path d="M0 6.16667H21.3333V27.5H0V6.16667ZM20 26.1667V7.5H1.33333V26.1667H20Z" fill="#111111"/>
<path d="M8.38699 9.82699H10.807C12.327 9.82699 13.447 10.1403 14.167 10.767C14.9803 11.4603 15.387 12.4137 15.387 13.627C15.387 14.667 15.0337 15.5537 14.327 16.287C13.6337 17.007 12.5803 17.367 11.167 17.367H9.86699V23.167H8.38699V9.82699ZM9.86699 11.227V15.967H11.087C11.967 15.967 12.6537 15.7537 13.147 15.327C13.6537 14.9003 13.907 14.307 13.907 13.547C13.907 12.0003 12.927 11.227 10.967 11.227H9.86699Z" fill="#111111"/>
</svg>
