<svg width="20" height="20" viewBox="0 0 20 20" fill="none" xmlns="http://www.w3.org/2000/svg">
<path d="M13.125 0C13.7565 0 14.3652 0.0813802 14.9512 0.244141C15.5371 0.406901 16.084 0.638021 16.5918 0.9375C17.0996 1.23698 17.5618 1.59505 17.9785 2.01172C18.3952 2.42839 18.7565 2.89388 19.0625 3.4082C19.3685 3.92253 19.5996 4.4694 19.7559 5.04883C19.9121 5.62826 19.9935 6.23698 20 6.875C20 7.50651 19.9186 8.11523 19.7559 8.70117C19.5931 9.28711 19.362 9.83398 19.0625 10.3418C18.763 10.8496 18.4049 11.3118 17.9883 11.7285C17.5716 12.1452 17.1061 12.5065 16.5918 12.8125C16.0775 13.1185 15.5306 13.3496 14.9512 13.5059C14.3717 13.6621 13.763 13.7435 13.125 13.75C12.3112 13.75 11.5332 13.6133 10.791 13.3398C10.0488 13.0664 9.36198 12.6725 8.73047 12.1582L1.06445 19.8145C0.940755 19.9382 0.794271 20 0.625 20C0.455729 20 0.309245 19.9382 0.185547 19.8145C0.061849 19.6908 0 19.5443 0 19.375C0 19.2057 0.061849 19.0592 0.185547 18.9355L7.8418 11.2695C7.32747 10.6445 6.93359 9.96094 6.66016 9.21875C6.38672 8.47656 6.25 7.69531 6.25 6.875C6.25 6.24349 6.33138 5.63477 6.49414 5.04883C6.6569 4.46289 6.88802 3.91602 7.1875 3.4082C7.48698 2.90039 7.84505 2.43815 8.26172 2.02148C8.67839 1.60482 9.14388 1.24349 9.6582 0.9375C10.1725 0.63151 10.7194 0.400391 11.2988 0.244141C11.8783 0.0878906 12.487 0.00651042 13.125 0ZM13.125 12.5C13.8997 12.5 14.6289 12.3535 15.3125 12.0605C15.9961 11.7676 16.5918 11.3639 17.0996 10.8496C17.6074 10.3353 18.0078 9.73958 18.3008 9.0625C18.5938 8.38542 18.7435 7.65625 18.75 6.875C18.75 6.10026 18.6035 5.37109 18.3105 4.6875C18.0176 4.00391 17.6139 3.4082 17.0996 2.90039C16.5853 2.39258 15.9896 1.99219 15.3125 1.69922C14.6354 1.40625 13.9062 1.25651 13.125 1.25C12.3503 1.25 11.6211 1.39648 10.9375 1.68945C10.2539 1.98242 9.6582 2.38607 9.15039 2.90039C8.64258 3.41471 8.24219 4.01042 7.94922 4.6875C7.65625 5.36458 7.50651 6.09375 7.5 6.875C7.5 7.64974 7.64648 8.37891 7.93945 9.0625C8.23242 9.74609 8.63607 10.3418 9.15039 10.8496C9.66471 11.3574 10.2604 11.7578 10.9375 12.0508C11.6146 12.3438 12.3438 12.4935 13.125 12.5Z" fill="#111111"/>
</svg>
