<svg width="20" height="24" viewBox="0 0 20 24" fill="none" xmlns="http://www.w3.org/2000/svg">
<path d="M20 6V21C20 21.4141 19.9219 21.8008 19.7656 22.1602C19.6094 22.5195 19.3945 22.8359 19.1211 23.1094C18.8477 23.3828 18.5273 23.5977 18.1602 23.7539C17.793 23.9102 17.4062 23.9922 17 24H3.5C3.08594 24 2.69922 23.9219 2.33984 23.7656C1.98047 23.6094 1.66406 23.3945 1.39062 23.1211C1.11719 22.8477 0.902344 22.5312 0.746094 22.1719C0.589844 21.8125 0.507812 21.4219 0.5 21V6H3.5V4.5C3.5 3.88281 3.61719 3.30078 3.85156 2.75391C4.08594 2.20703 4.41016 1.73047 4.82422 1.32422C5.23828 0.917969 5.71484 0.597656 6.25391 0.363281C6.79297 0.128906 7.375 0.0078125 8 0C8.8125 0 9.56641 0.203125 10.2617 0.609375C10.957 0.203125 11.7031 0 12.5 0C13.1172 0 13.6992 0.117188 14.2461 0.351562C14.793 0.585938 15.2695 0.910156 15.6758 1.32422C16.082 1.73828 16.4023 2.21484 16.6367 2.75391C16.8711 3.29297 16.9922 3.875 17 4.5V6H20ZM15.5 4.5C15.5 4.09375 15.4219 3.70703 15.2656 3.33984C15.1094 2.97266 14.8945 2.65625 14.6211 2.39062C14.3477 2.125 14.0273 1.91016 13.6602 1.74609C13.293 1.58203 12.9062 1.5 12.5 1.5C12.1484 1.5 11.8164 1.55859 11.5039 1.67578C11.7305 1.95703 11.9102 2.23438 12.043 2.50781C12.1758 2.78125 12.2734 3.05469 12.3359 3.32812C12.3984 3.60156 12.4414 3.87891 12.4648 4.16016C12.4883 4.44141 12.5 4.74219 12.5 5.0625V6H15.5V4.5ZM5 6H11V4.5C11 4.09375 10.9219 3.70703 10.7656 3.33984C10.6094 2.97266 10.3945 2.65625 10.1211 2.39062C9.84766 2.125 9.52734 1.91016 9.16016 1.74609C8.79297 1.58203 8.40625 1.5 8 1.5C7.58594 1.5 7.19922 1.57812 6.83984 1.73438C6.48047 1.89062 6.16406 2.10547 5.89062 2.37891C5.61719 2.65234 5.40234 2.97266 5.24609 3.33984C5.08984 3.70703 5.00781 4.09375 5 4.5V6ZM14.3984 22.5C14.1328 22.0312 14 21.5312 14 21V7.5H2V21C2 21.2109 2.03906 21.4062 2.11719 21.5859C2.19531 21.7656 2.30078 21.9219 2.43359 22.0547C2.56641 22.1875 2.72656 22.2969 2.91406 22.3828C3.10156 22.4688 3.29688 22.5078 3.5 22.5H14.3984ZM18.5 7.5H15.5V21C15.5 21.2109 15.5391 21.4062 15.6172 21.5859C15.6953 21.7656 15.8008 21.9219 15.9336 22.0547C16.0664 22.1875 16.2266 22.2969 16.4141 22.3828C16.6016 22.4688 16.7969 22.5078 17 22.5C17.2109 22.5 17.4062 22.4609 17.5859 22.3828C17.7656 22.3047 17.9219 22.1992 18.0547 22.0664C18.1875 21.9336 18.2969 21.7734 18.3828 21.5859C18.4688 21.3984 18.5078 21.2031 18.5 21V7.5Z" fill="#111111"/>
</svg>
