<svg width="24" height="24" viewBox="0 0 24 24" fill="none" xmlns="http://www.w3.org/2000/svg">
<path d="M18.75 9.75C18.5391 9.75 18.3438 9.71094 18.1641 9.63281C17.9844 9.55469 17.8281 9.44922 17.6953 9.31641C17.5625 9.18359 17.4531 9.02344 17.3672 8.83594C17.2812 8.64844 17.2422 8.45312 17.25 8.25C17.25 8.03906 17.2891 7.84375 17.3672 7.66406C17.4453 7.48438 17.5508 7.32812 17.6836 7.19531C17.8164 7.0625 17.9766 6.95312 18.1641 6.86719C18.3516 6.78125 18.5469 6.74219 18.75 6.75C18.9609 6.75 19.1562 6.78906 19.3359 6.86719C19.5156 6.94531 19.6719 7.05078 19.8047 7.18359C19.9375 7.31641 20.0469 7.47656 20.1328 7.66406C20.2188 7.85156 20.2578 8.04688 20.25 8.25C20.25 8.46094 20.2109 8.65625 20.1328 8.83594C20.0547 9.01562 19.9492 9.17188 19.8164 9.30469C19.6836 9.4375 19.5234 9.54688 19.3359 9.63281C19.1484 9.71875 18.9531 9.75781 18.75 9.75ZM21 3H24V13.0664L13.5 23.5664L6.98438 17.0273C4.8125 14.8477 2.62891 12.6719 0.433594 10.5L10.9336 0H21V3ZM11.5664 1.5L2.56641 10.5L4.5 12.4336L13.9336 3H19.5V1.5H11.5664ZM22.5 12.4336V4.5H14.5664L5.56641 13.5L13.5 21.4336L22.5 12.4336Z" fill="#111111"/>
</svg>
