<svg width="24" height="23" viewBox="0 0 24 23" fill="none" xmlns="http://www.w3.org/2000/svg">
<path d="M24 11.8203C24 12.125 23.9414 12.4219 23.8242 12.7109C23.707 13 23.5391 13.2539 23.3203 13.4727L14.918 21.875L10.5 22.9766L11.6016 18.5586L20.0039 10.168C20.2227 9.94921 20.4766 9.78906 20.7656 9.68749C21.0547 9.58593 21.3516 9.53515 21.6562 9.53515C21.9844 9.53515 22.2891 9.58984 22.5703 9.69921C22.8516 9.80859 23.1016 9.96874 23.3203 10.1797C23.5391 10.3906 23.7031 10.6289 23.8125 10.8945C23.9219 11.1601 23.9844 11.4687 24 11.8203ZM22.5 11.8203C22.5 11.5625 22.4219 11.3633 22.2656 11.2227C22.1094 11.082 21.9062 11.0117 21.6562 11.0117C21.5469 11.0117 21.4414 11.0273 21.3398 11.0586C21.2383 11.0898 21.1484 11.1445 21.0703 11.2227L12.9609 19.332L12.5625 20.9141L14.1445 20.5156L22.2539 12.418C22.418 12.2539 22.5 12.0547 22.5 11.8203ZM14.5078 13.0039C14.6875 12.707 14.8125 12.3867 14.8828 12.043C14.9531 11.6992 14.9922 11.3516 15 11C15 10.3828 14.8828 9.80078 14.6484 9.2539C14.4141 8.70702 14.0938 8.23046 13.6875 7.82421C13.2812 7.41796 12.8008 7.09374 12.2461 6.85156C11.6914 6.60937 11.1094 6.49218 10.5 6.49999C9.875 6.49999 9.28906 6.61718 8.74219 6.85156C8.19531 7.08593 7.71875 7.40624 7.3125 7.81249C6.90625 8.21874 6.58594 8.69531 6.35156 9.24218C6.11719 9.78906 6 10.375 6 11C6 11.625 6.11719 12.2109 6.35156 12.7578C6.58594 13.3047 6.90625 13.7812 7.3125 14.1875C7.71875 14.5937 8.19531 14.9141 8.74219 15.1484C9.28906 15.3828 9.875 15.5 10.5 15.5C10.8516 15.5 11.1953 15.4609 11.5312 15.3828C11.8672 15.3047 12.1914 15.1797 12.5039 15.0078L10.5117 17H10.5C9.66406 17 8.88281 16.8437 8.15625 16.5312C7.42969 16.2187 6.79688 15.793 6.25781 15.2539C5.71875 14.7148 5.28906 14.0781 4.96875 13.3437C4.64844 12.6094 4.49219 11.8281 4.5 11C4.5 10.1719 4.65625 9.39453 4.96875 8.66796C5.28125 7.9414 5.70703 7.30468 6.24609 6.75781C6.78516 6.21093 7.42188 5.78124 8.15625 5.46874C8.89062 5.15624 9.67188 4.99999 10.5 4.99999C11.3359 4.99999 12.1172 5.15624 12.8438 5.46874C13.5703 5.78124 14.207 6.21093 14.7539 6.75781C15.3008 7.30468 15.7266 7.94531 16.0312 8.67968C16.3359 9.41406 16.4922 10.1953 16.5 11.0234L14.5078 13.0039ZM9.32812 19.918L8.96484 21.3828C8.10547 21.2656 7.28906 21.0469 6.51562 20.7266C5.74219 20.4062 5.02344 20.0078 4.35938 19.5312C3.69531 19.0547 3.09375 18.5 2.55469 17.8672C2.01562 17.2344 1.55859 16.5547 1.18359 15.8281C0.808594 15.1016 0.519531 14.3281 0.316406 13.5078C0.113281 12.6875 0.0078125 11.8516 0 11C0 10.0391 0.125 9.11328 0.375 8.22265C0.625 7.33203 0.976562 6.49609 1.42969 5.71484C1.88281 4.93359 2.43359 4.22265 3.08203 3.58203C3.73047 2.9414 4.4375 2.39452 5.20312 1.9414C5.96875 1.48827 6.80469 1.13281 7.71094 0.874994C8.61719 0.617181 9.54688 0.492181 10.5 0.499994C11.6562 0.499994 12.7578 0.675775 13.8047 1.02734C14.8516 1.3789 15.8125 1.87499 16.6875 2.51562C17.5625 3.15624 18.3242 3.92968 18.9727 4.83593C19.6211 5.74218 20.1289 6.73828 20.4961 7.82421C20.2461 7.90234 20.0117 7.98828 19.793 8.08203C19.5742 8.17578 19.3555 8.30859 19.1367 8.48046C18.8555 7.51953 18.4336 6.64062 17.8711 5.84374C17.3086 5.04687 16.6484 4.36718 15.8906 3.80468C15.1328 3.24218 14.2969 2.80078 13.3828 2.48046C12.4688 2.16015 11.5078 1.99999 10.5 1.99999C9.67188 1.99999 8.875 2.10546 8.10938 2.3164C7.34375 2.52734 6.62891 2.83203 5.96484 3.23046C5.30078 3.6289 4.69141 4.09765 4.13672 4.63671C3.58203 5.17578 3.11328 5.78124 2.73047 6.45312C2.34766 7.12499 2.04688 7.84374 1.82812 8.60937C1.60938 9.37499 1.5 10.1719 1.5 11C1.5 11.7422 1.58984 12.4648 1.76953 13.168C1.94922 13.8711 2.20312 14.5391 2.53125 15.1719C2.85938 15.8047 3.26172 16.3906 3.73828 16.9297C4.21484 17.4687 4.73828 17.9453 5.30859 18.3594C5.87891 18.7734 6.50781 19.1133 7.19531 19.3789C7.88281 19.6445 8.59375 19.8242 9.32812 19.918ZM12 11C12 11.2109 11.9609 11.4062 11.8828 11.5859C11.8047 11.7656 11.6992 11.9219 11.5664 12.0547C11.4336 12.1875 11.2734 12.2969 11.0859 12.3828C10.8984 12.4687 10.7031 12.5078 10.5 12.5C10.2891 12.5 10.0938 12.4609 9.91406 12.3828C9.73438 12.3047 9.57812 12.1992 9.44531 12.0664C9.3125 11.9336 9.20312 11.7734 9.11719 11.5859C9.03125 11.3984 8.99219 11.2031 9 11C9 10.7891 9.03906 10.5937 9.11719 10.4141C9.19531 10.2344 9.30078 10.0781 9.43359 9.94531C9.56641 9.81249 9.72656 9.70312 9.91406 9.61718C10.1016 9.53124 10.2969 9.49218 10.5 9.49999C10.7109 9.49999 10.9062 9.53906 11.0859 9.61718C11.2656 9.69531 11.4219 9.80078 11.5547 9.93359C11.6875 10.0664 11.7969 10.2266 11.8828 10.4141C11.9688 10.6016 12.0078 10.7969 12 11Z" fill="#111111"/>
</svg>
