<svg width="22" height="22" viewBox="0 0 22 22" fill="none" xmlns="http://www.w3.org/2000/svg">
<path d="M11 21.5C10.0312 21.5 9.10156 21.375 8.21094 21.125C7.32031 20.875 6.48438 20.5234 5.70312 20.0703C4.92188 19.6172 4.21484 19.0703 3.58203 18.4297C2.94922 17.7891 2.40234 17.082 1.94141 16.3086C1.48047 15.5352 1.125 14.6992 0.875 13.8008C0.625 12.9023 0.5 11.9688 0.5 11C0.5 10.0312 0.625 9.10156 0.875 8.21094C1.125 7.32031 1.47656 6.48438 1.92969 5.70312C2.38281 4.92188 2.92969 4.21484 3.57031 3.58203C4.21094 2.94922 4.91797 2.40234 5.69141 1.94141C6.46484 1.48047 7.30078 1.125 8.19922 0.875C9.09766 0.625 10.0312 0.5 11 0.5C11.9688 0.5 12.8984 0.625 13.7891 0.875C14.6797 1.125 15.5156 1.47656 16.2969 1.92969C17.0781 2.38281 17.7852 2.92969 18.418 3.57031C19.0508 4.21094 19.5977 4.91797 20.0586 5.69141C20.5195 6.46484 20.875 7.30078 21.125 8.19922C21.375 9.09766 21.5 10.0312 21.5 11C21.5 11.9688 21.375 12.8984 21.125 13.7891C20.875 14.6797 20.5234 15.5156 20.0703 16.2969C19.6172 17.0781 19.0703 17.7852 18.4297 18.418C17.7891 19.0508 17.082 19.5977 16.3086 20.0586C15.5352 20.5195 14.6992 20.875 13.8008 21.125C12.9023 21.375 11.9688 21.5 11 21.5ZM11 2C9.75781 2 8.59375 2.23438 7.50781 2.70312C6.42188 3.17188 5.46875 3.81641 4.64844 4.63672C3.82812 5.45703 3.18359 6.41016 2.71484 7.49609C2.24609 8.58203 2.00781 9.75 2 11C2 12.2422 2.23438 13.4062 2.70312 14.4922C3.17188 15.5781 3.81641 16.5312 4.63672 17.3516C5.45703 18.1719 6.41016 18.8164 7.49609 19.2852C8.58203 19.7539 9.75 19.9922 11 20C12.2422 20 13.4062 19.7656 14.4922 19.2969C15.5781 18.8281 16.5312 18.1836 17.3516 17.3633C18.1719 16.543 18.8164 15.5898 19.2852 14.5039C19.7539 13.418 19.9922 12.25 20 11C20 9.75781 19.7656 8.59375 19.2969 7.50781C18.8281 6.42188 18.1836 5.46875 17.3633 4.64844C16.543 3.82812 15.5898 3.18359 14.5039 2.71484C13.418 2.24609 12.25 2.00781 11 2ZM11 11V5H9.5V12.5H15.5V11H11Z" fill="#111111"/>
</svg>
