<svg width="20" height="21" viewBox="0 0 20 21" fill="none" xmlns="http://www.w3.org/2000/svg">
<g clip-path="url(#clip0)">
<path d="M19.894 15.0997C19.8698 15.0475 19.8472 15.0042 19.8262 14.9696C19.4792 14.3446 18.8161 13.5775 17.8373 12.6681L17.8166 12.6472L17.8063 12.637L17.7958 12.6266H17.7853C17.341 12.2031 17.0597 11.9183 16.9419 11.7726C16.7264 11.4949 16.6781 11.2138 16.7959 10.929C16.8791 10.7138 17.1918 10.2593 17.7331 9.56499C18.0178 9.19702 18.2433 8.9021 18.4099 8.67991C19.611 7.08314 20.1317 6.06279 19.9719 5.61844L19.9099 5.51461C19.8682 5.45209 19.7606 5.3949 19.5872 5.34275C19.4135 5.2907 19.1914 5.28209 18.9206 5.31678L15.9217 5.3375C15.8731 5.32028 15.8037 5.32189 15.7134 5.34275C15.6231 5.36361 15.5779 5.37408 15.5779 5.37408L15.5257 5.40016L15.4843 5.43149C15.4496 5.4522 15.4114 5.48864 15.3697 5.54072C15.3282 5.59262 15.2936 5.65353 15.2658 5.72294C14.9393 6.56294 14.5681 7.34392 14.1515 8.06586C13.8946 8.49635 13.6587 8.86942 13.4433 9.18531C13.2281 9.50109 13.0476 9.73375 12.9019 9.88288C12.756 10.0322 12.6244 10.1518 12.5061 10.2421C12.3881 10.3325 12.298 10.3707 12.2355 10.3567C12.173 10.3427 12.1141 10.3289 12.0583 10.315C11.9612 10.2525 11.8831 10.1675 11.8242 10.0599C11.765 9.95229 11.7252 9.81687 11.7044 9.65373C11.6836 9.49048 11.6714 9.35006 11.6679 9.232C11.6646 9.11408 11.6661 8.94729 11.6732 8.7321C11.6804 8.51681 11.6836 8.37113 11.6836 8.29476C11.6836 8.03092 11.6888 7.74457 11.6991 7.43565C11.7096 7.12673 11.7181 6.88196 11.7252 6.70164C11.7323 6.52114 11.7356 6.33017 11.7356 6.12884C11.7356 5.92751 11.7233 5.76962 11.6991 5.65503C11.6752 5.54057 11.6385 5.42948 11.5901 5.32178C11.5414 5.21418 11.4701 5.13095 11.3766 5.07187C11.2829 5.01285 11.1664 4.96602 11.0278 4.93123C10.6598 4.84796 10.1912 4.80292 9.62185 4.79592C8.33069 4.78206 7.50105 4.86543 7.13311 5.04593C6.98733 5.1222 6.85541 5.2264 6.73746 5.35821C6.61247 5.511 6.59504 5.59437 6.68527 5.60809C7.10186 5.67049 7.39677 5.81977 7.57035 6.05579L7.6329 6.18085C7.68155 6.27108 7.73013 6.43083 7.77875 6.65988C7.8273 6.88893 7.85863 7.1423 7.87241 7.41986C7.90706 7.92672 7.90706 8.36059 7.87241 8.72153C7.83765 9.0826 7.80483 9.3637 7.7735 9.56503C7.74217 9.76636 7.69534 9.9295 7.6329 10.0544C7.57035 10.1794 7.52873 10.2557 7.50787 10.2835C7.48704 10.3112 7.46968 10.3287 7.4559 10.3355C7.36566 10.3701 7.27182 10.3877 7.17469 10.3877C7.07742 10.3877 6.95947 10.339 6.82065 10.2418C6.68188 10.1446 6.53785 10.011 6.38856 9.8409C6.23928 9.67076 6.07093 9.433 5.88342 9.12758C5.69606 8.82215 5.50166 8.46119 5.30033 8.04467L5.13376 7.7426C5.02963 7.54828 4.88739 7.26532 4.70689 6.894C4.52628 6.52252 4.36664 6.1632 4.22786 5.81609C4.17238 5.67031 4.08904 5.55932 3.97799 5.48295L3.92587 5.45162C3.89122 5.4239 3.8356 5.39447 3.7593 5.3631C3.68289 5.33177 3.60316 5.3093 3.51978 5.29548L0.666572 5.3162C0.375011 5.3162 0.177184 5.38225 0.073018 5.51417L0.0313299 5.57657C0.0105041 5.61133 0 5.66684 0 5.74325C0 5.81963 0.0208258 5.91336 0.0625139 6.02435C0.47903 7.00327 0.931983 7.94736 1.42137 8.85677C1.91076 9.76617 2.33603 10.4987 2.69692 11.0538C3.05789 11.6092 3.42583 12.1334 3.80073 12.6262C4.17563 13.1191 4.42379 13.435 4.54521 13.5738C4.66677 13.7128 4.76225 13.8167 4.83166 13.8861L5.09204 14.136C5.25865 14.3027 5.5033 14.5022 5.82612 14.7348C6.14901 14.9674 6.50648 15.1965 6.89871 15.4223C7.291 15.6477 7.74739 15.8317 8.2681 15.9739C8.78875 16.1164 9.2955 16.1735 9.78842 16.1459H10.986C11.2288 16.125 11.4128 16.0486 11.5379 15.9168L11.5793 15.8646C11.6072 15.8232 11.6333 15.7588 11.6573 15.6722C11.6817 15.5854 11.6938 15.4898 11.6938 15.3858C11.6867 15.0874 11.7094 14.8184 11.7614 14.5789C11.8133 14.3395 11.8724 14.159 11.9386 14.0374C12.0047 13.916 12.0793 13.8135 12.1624 13.7304C12.2456 13.6471 12.3049 13.5967 12.3397 13.5793C12.3743 13.5619 12.4019 13.55 12.4227 13.5429C12.5893 13.4874 12.7854 13.5412 13.0112 13.7044C13.2369 13.8676 13.4486 14.069 13.6465 14.3084C13.8444 14.548 14.0821 14.8169 14.3597 15.1153C14.6376 15.4139 14.8805 15.6358 15.0886 15.7818L15.2968 15.9068C15.4359 15.9902 15.6164 16.0665 15.8386 16.136C16.0604 16.2053 16.2547 16.2227 16.4215 16.188L19.0872 16.1464C19.3509 16.1464 19.556 16.1028 19.7015 16.0161C19.8474 15.9294 19.934 15.8338 19.9619 15.7298C19.9898 15.6257 19.9913 15.5076 19.9672 15.3756C19.9425 15.2439 19.9182 15.1518 19.894 15.0997Z" fill="#111111"/>
</g>
<defs>
<clipPath id="clip0">
<rect width="20" height="20" fill="white" transform="translate(0 0.5)"/>
</clipPath>
</defs>
</svg>
