<svg width="362" height="8" viewBox="0 0 362 8" fill="none" xmlns="http://www.w3.org/2000/svg">
<path d="M355.137 3.19655C351.14 -0.812438 344.635 -0.812438 340.638 3.19655C339.13 4.70937 337.131 5.54143 335.001 5.54143C332.87 5.54143 330.872 4.70937 329.363 3.19655C327.421 1.24879 324.857 0.170898 322.123 0.170898C319.39 0.170898 316.807 1.24879 314.883 3.19655C313.375 4.70937 311.377 5.54143 309.246 5.54143C307.115 5.54143 305.117 4.70937 303.609 3.19655C299.612 -0.812438 293.107 -0.812438 289.11 3.19655C287.601 4.70937 285.603 5.54143 283.472 5.54143C281.342 5.54143 279.343 4.70937 277.835 3.19655C273.838 -0.812438 267.333 -0.812438 263.336 3.19655C261.828 4.70937 259.829 5.54143 257.699 5.54143C255.568 5.54143 253.57 4.70937 252.061 3.19655C248.064 -0.812438 241.56 -0.812438 237.562 3.19655C236.054 4.70937 234.056 5.54143 231.925 5.54143C229.795 5.54143 227.796 4.70937 226.288 3.19655C222.291 -0.812438 215.786 -0.812438 211.789 3.19655C210.281 4.70937 208.282 5.54143 206.151 5.54143C204.021 5.54143 202.022 4.70937 200.514 3.19655C198.572 1.24879 196.008 0.170898 193.274 0.170898C190.54 0.170898 187.976 1.24879 186.034 3.19655C184.526 4.70937 182.527 5.54143 180.397 5.54143C178.266 5.54143 176.268 4.70937 174.759 3.19655C170.762 -0.831348 164.257 -0.831348 160.26 3.19655C158.752 4.70937 156.754 5.54143 154.623 5.54143C152.492 5.54143 150.494 4.70937 148.986 3.19655C144.989 -0.831348 138.503 -0.831348 134.506 3.19655C132.997 4.70937 130.999 5.54143 128.868 5.54143C126.738 5.54143 124.739 4.70937 123.231 3.19655C119.234 -0.812438 112.729 -0.812438 108.732 3.19655C107.224 4.70937 105.225 5.54143 103.095 5.54143C100.964 5.54143 98.9655 4.70937 97.4572 3.19655C93.4601 -0.831348 86.9554 -0.831348 82.9583 3.19655C81.45 4.70937 79.4515 5.54143 77.3209 5.54143C75.1904 5.54143 73.1919 4.70937 71.6835 3.19655C67.6865 -0.831348 61.1818 -0.831348 57.2035 3.19655C55.6952 4.70937 53.6967 5.54143 51.5661 5.54143C49.4356 5.54143 47.4371 4.70937 45.9287 3.19655C41.9317 -0.812438 35.427 -0.812438 31.4299 3.19655C29.9216 4.70937 27.923 5.54143 25.7925 5.54143C23.662 5.54143 21.6634 4.70937 20.1551 3.19655C16.158 -0.831348 9.65333 -0.831348 5.65625 3.19655C4.18562 4.67155 2.24365 5.5036 0.188542 5.54143H0V7.82957H0.188542C2.86583 7.79175 5.37344 6.71386 7.25885 4.82283C10.3698 1.68372 15.4416 1.68372 18.5336 4.80392C20.4756 6.75169 23.0398 7.82957 25.7736 7.82957C28.5075 7.82957 31.0905 6.75169 33.0136 4.80392C36.1434 1.68372 41.1964 1.68372 44.3073 4.80392C46.2493 6.75169 48.8134 7.82957 51.5473 7.82957C54.2811 7.82957 56.8642 6.75169 58.7873 4.80392C60.2956 3.2911 62.2942 2.45905 64.4247 2.45905C66.5552 2.45905 68.5537 3.2911 70.0621 4.80392C72.0041 6.75169 74.5682 7.82957 77.3021 7.82957C80.0359 7.82957 82.6189 6.75169 84.5421 4.80392C87.6719 1.68372 92.7436 1.68372 95.8546 4.80392C97.7966 6.75169 100.361 7.82957 103.095 7.82957C105.828 7.82957 108.411 6.75169 110.335 4.80392C113.446 1.68372 118.498 1.68372 121.609 4.80392C123.551 6.75169 126.116 7.82957 128.849 7.82957C131.583 7.82957 134.166 6.75169 136.089 4.80392C139.2 1.68372 144.253 1.68372 147.364 4.80392C149.306 6.75169 151.87 7.82957 154.604 7.82957C157.338 7.82957 159.921 6.75169 161.844 4.80392C164.955 1.68372 170.008 1.68372 173.119 4.80392C175.061 6.75169 177.625 7.82957 180.359 7.82957C183.093 7.82957 185.676 6.75169 187.599 4.80392C189.107 3.2911 191.106 2.45905 193.236 2.45905C195.367 2.45905 197.365 3.2911 198.874 4.80392C200.816 6.75169 203.38 7.82957 206.114 7.82957C208.848 7.82957 211.431 6.75169 213.354 4.80392C216.465 1.68372 221.518 1.68372 224.629 4.80392C226.571 6.75169 229.135 7.82957 231.869 7.82957C234.602 7.82957 237.185 6.75169 239.109 4.80392C242.219 1.68372 247.272 1.68372 250.383 4.80392C252.325 6.75169 254.889 7.82957 257.623 7.82957C260.357 7.82957 262.94 6.75169 264.863 4.80392C267.974 1.68372 273.027 1.68372 276.138 4.80392C278.08 6.75169 280.644 7.82957 283.378 7.82957C286.112 7.82957 288.695 6.75169 290.618 4.80392C293.729 1.68372 298.782 1.68372 301.893 4.80392C303.835 6.75169 306.399 7.82957 309.133 7.82957C311.867 7.82957 314.45 6.75169 316.373 4.80392C317.881 3.2911 319.88 2.45905 322.01 2.45905C324.141 2.45905 326.139 3.2911 327.648 4.80392C329.59 6.75169 332.154 7.82957 334.888 7.82957C337.622 7.82957 340.205 6.75169 342.128 4.80392C345.239 1.68372 350.292 1.68372 353.402 4.80392C355.59 6.99752 358.625 8.07541 361.717 7.75393L361.887 7.73502V5.42796L361.679 5.44687C359.323 5.78726 356.89 4.95521 355.137 3.19655Z" fill="#111111"/>
</svg>
