<?xml version="1.0" encoding="utf-8"?>
<!-- Generator: Adobe Illustrator 23.0.0, SVG Export Plug-In . SVG Version: 6.00 Build 0)  -->
<svg version="1.1" id="Слой_1" xmlns="http://www.w3.org/2000/svg" xmlns:xlink="http://www.w3.org/1999/xlink" x="0px" y="0px"
	 viewBox="0 0 527.8 12" style="enable-background:new 0 0 527.8 12;" xml:space="preserve">
<style type="text/css">
	.st0{fill:#111111;}
</style>
<path class="st0" d="M517.9,4.6c-5.8-5.8-15.3-5.8-21.1,0c-2.2,2.2-5.1,3.4-8.2,3.4c-3.1,0-6-1.2-8.2-3.4c-2.8-2.8-6.6-4.4-10.6-4.4
	c-4,0-7.8,1.6-10.6,4.4C457,6.8,454.1,8,451,8c-3.1,0-6-1.2-8.2-3.4c-5.8-5.8-15.3-5.8-21.1,0c-2.2,2.2-5.1,3.4-8.2,3.4
	c-3.1,0-6-1.2-8.2-3.4c-5.8-5.8-15.3-5.8-21.1,0c-2.2,2.2-5.1,3.4-8.2,3.4c-3.1,0-6-1.2-8.2-3.4c-5.8-5.8-15.3-5.8-21.1,0
	c-2.2,2.2-5.1,3.4-8.2,3.4c-3.1,0-6-1.2-8.2-3.4c-5.8-5.8-15.3-5.8-21.1,0c-2.2,2.2-5.1,3.4-8.2,3.4c-3.1,0-6-1.2-8.2-3.4
	c-2.8-2.8-6.6-4.4-10.6-4.4c-4,0-7.7,1.6-10.6,4.4C269.1,6.8,266.1,8,263,8c-3.1,0-6-1.2-8.2-3.4c-5.8-5.9-15.3-5.9-21.1,0
	c-2.2,2.2-5.1,3.4-8.2,3.4c-3.1,0-6-1.2-8.2-3.4c-5.8-5.9-15.3-5.9-21.1,0C193.9,6.8,191,8,187.9,8c-3.1,0-6-1.2-8.2-3.4
	c-5.8-5.8-15.3-5.8-21.1,0c-2.2,2.2-5.1,3.4-8.2,3.4c-3.1,0-6-1.2-8.2-3.4c-5.8-5.9-15.3-5.9-21.1,0c-2.2,2.2-5.1,3.4-8.2,3.4
	c-3.1,0-6-1.2-8.2-3.4c-5.8-5.9-15.3-5.9-21.1,0C81.2,6.8,78.2,8,75.1,8s-6-1.2-8.2-3.4c-5.8-5.8-15.3-5.8-21.1,0
	C43.6,6.8,40.6,8,37.5,8c-3.1,0-6-1.2-8.2-3.4C23.5-1.3,14-1.3,8.2,4.6C6,6.7,3.2,7.9,0.2,8h-0.3v3.3h0.3C4.1,11.3,7.8,9.7,10.5,7
	c4.5-4.6,11.9-4.6,16.4,0c2.8,2.8,6.6,4.4,10.6,4.4s7.8-1.6,10.6-4.4c4.6-4.6,11.9-4.6,16.5,0c2.8,2.8,6.6,4.4,10.6,4.4
	c4,0,7.8-1.6,10.6-4.4c2.2-2.2,5.1-3.4,8.2-3.4s6,1.2,8.2,3.4c2.8,2.8,6.6,4.4,10.6,4.4c4,0,7.8-1.6,10.6-4.4c4.6-4.6,12-4.6,16.5,0
	c2.8,2.8,6.6,4.4,10.6,4.4c4,0,7.8-1.6,10.6-4.4c4.5-4.6,11.9-4.6,16.4,0c2.8,2.8,6.6,4.4,10.6,4.4c4,0,7.8-1.6,10.6-4.4
	c4.5-4.6,11.9-4.6,16.4,0c2.8,2.8,6.6,4.4,10.6,4.4c4,0,7.8-1.6,10.6-4.4c4.5-4.6,11.9-4.6,16.4,0c2.8,2.8,6.6,4.4,10.6,4.4
	c4,0,7.8-1.6,10.6-4.4c2.2-2.2,5.1-3.4,8.2-3.4c3.1,0,6,1.2,8.2,3.4c2.8,2.8,6.6,4.4,10.6,4.4c4,0,7.8-1.6,10.6-4.4
	c4.5-4.6,11.9-4.6,16.4,0c2.8,2.8,6.6,4.4,10.6,4.4c4,0,7.8-1.6,10.6-4.4c4.5-4.6,11.9-4.6,16.4,0c2.8,2.8,6.6,4.4,10.6,4.4
	c4,0,7.8-1.6,10.6-4.4c4.5-4.6,11.9-4.6,16.4,0c2.8,2.8,6.6,4.4,10.6,4.4c4,0,7.8-1.6,10.6-4.4c4.5-4.6,11.9-4.6,16.4,0
	c2.8,2.8,6.6,4.4,10.6,4.4c4,0,7.8-1.6,10.6-4.4c2.2-2.2,5.1-3.4,8.2-3.4c3.1,0,6,1.2,8.2,3.4c2.8,2.8,6.6,4.4,10.6,4.4
	c4,0,7.8-1.6,10.6-4.4c4.5-4.6,11.9-4.6,16.4,0c3.2,3.2,7.6,4.8,12.1,4.3l0.2,0V7.8l-0.3,0C524,8.4,520.5,7.1,517.9,4.6z"/>
</svg>
