<svg width="528" height="12" viewBox="0 0 528 12" fill="none" xmlns="http://www.w3.org/2000/svg">
<path d="M517.99 4.58376C512.16 -1.2636 502.672 -1.2636 496.842 4.58376C494.642 6.79031 491.727 8.00391 488.62 8.00391C485.512 8.00391 482.597 6.79031 480.397 4.58376C477.565 1.74282 473.825 0.170654 469.837 0.170654C465.85 0.170654 462.082 1.74282 459.277 4.58376C457.077 6.79031 454.162 8.00391 451.055 8.00391C447.947 8.00391 445.032 6.79031 442.832 4.58376C437.002 -1.2636 427.515 -1.2636 421.685 4.58376C419.485 6.79031 416.57 8.00391 413.462 8.00391C410.355 8.00391 407.44 6.79031 405.24 4.58376C399.41 -1.2636 389.922 -1.2636 384.092 4.58376C381.892 6.79031 378.977 8.00391 375.87 8.00391C372.762 8.00391 369.847 6.79031 367.647 4.58376C361.817 -1.2636 352.33 -1.2636 346.5 4.58376C344.3 6.79031 341.385 8.00391 338.277 8.00391C335.17 8.00391 332.255 6.79031 330.055 4.58376C324.225 -1.2636 314.737 -1.2636 308.908 4.58376C306.707 6.79031 303.792 8.00391 300.685 8.00391C297.577 8.00391 294.662 6.79031 292.462 4.58376C289.63 1.74282 285.89 0.170654 281.902 0.170654C277.915 0.170654 274.175 1.74282 271.342 4.58376C269.142 6.79031 266.227 8.00391 263.12 8.00391C260.012 8.00391 257.097 6.79031 254.897 4.58376C249.067 -1.29119 239.58 -1.29119 233.75 4.58376C231.55 6.79031 228.635 8.00391 225.527 8.00391C222.42 8.00391 219.505 6.79031 217.305 4.58376C211.475 -1.29119 202.015 -1.29119 196.185 4.58376C193.985 6.79031 191.07 8.00391 187.962 8.00391C184.855 8.00391 181.94 6.79031 179.74 4.58376C173.91 -1.2636 164.422 -1.2636 158.592 4.58376C156.392 6.79031 153.477 8.00391 150.37 8.00391C147.262 8.00391 144.347 6.79031 142.147 4.58376C136.317 -1.29119 126.83 -1.29119 121 4.58376C118.8 6.79031 115.885 8.00391 112.777 8.00391C109.67 8.00391 106.755 6.79031 104.555 4.58376C98.725 -1.29119 89.2375 -1.29119 83.435 4.58376C81.235 6.79031 78.32 8.00391 75.2125 8.00391C72.105 8.00391 69.19 6.79031 66.99 4.58376C61.16 -1.2636 51.6725 -1.2636 45.8425 4.58376C43.6425 6.79031 40.7275 8.00391 37.62 8.00391C34.5125 8.00391 31.5975 6.79031 29.3975 4.58376C23.5675 -1.29119 14.08 -1.29119 8.25 4.58376C6.105 6.73514 3.2725 7.94875 0.275 8.00391H0V11.3413H0.275C4.18 11.2862 7.8375 9.71399 10.5875 6.9558C15.125 2.3772 22.5225 2.3772 27.0325 6.92822C29.865 9.76915 33.605 11.3413 37.5925 11.3413C41.58 11.3413 45.3475 9.76915 48.1525 6.92822C52.7175 2.3772 60.0875 2.3772 64.625 6.92822C67.4575 9.76915 71.1975 11.3413 75.185 11.3413C79.1725 11.3413 82.94 9.76915 85.745 6.92822C87.945 4.72166 90.86 3.50806 93.9675 3.50806C97.075 3.50806 99.99 4.72166 102.19 6.92822C105.022 9.76915 108.762 11.3413 112.75 11.3413C116.737 11.3413 120.505 9.76915 123.31 6.92822C127.875 2.3772 135.272 2.3772 139.81 6.92822C142.642 9.76915 146.382 11.3413 150.37 11.3413C154.357 11.3413 158.125 9.76915 160.93 6.92822C165.467 2.3772 172.837 2.3772 177.375 6.92822C180.207 9.76915 183.947 11.3413 187.935 11.3413C191.922 11.3413 195.69 9.76915 198.495 6.92822C203.032 2.3772 210.402 2.3772 214.94 6.92822C217.772 9.76915 221.512 11.3413 225.5 11.3413C229.487 11.3413 233.255 9.76915 236.06 6.92822C240.597 2.3772 247.967 2.3772 252.505 6.92822C255.337 9.76915 259.077 11.3413 263.065 11.3413C267.052 11.3413 270.82 9.76915 273.625 6.92822C275.825 4.72166 278.74 3.50806 281.847 3.50806C284.955 3.50806 287.87 4.72166 290.07 6.92822C292.902 9.76915 296.642 11.3413 300.63 11.3413C304.617 11.3413 308.385 9.76915 311.19 6.92822C315.727 2.3772 323.097 2.3772 327.635 6.92822C330.467 9.76915 334.207 11.3413 338.195 11.3413C342.182 11.3413 345.95 9.76915 348.755 6.92822C353.292 2.3772 360.662 2.3772 365.2 6.92822C368.032 9.76915 371.772 11.3413 375.76 11.3413C379.747 11.3413 383.515 9.76915 386.32 6.92822C390.857 2.3772 398.227 2.3772 402.765 6.92822C405.597 9.76915 409.337 11.3413 413.325 11.3413C417.312 11.3413 421.08 9.76915 423.885 6.92822C428.422 2.3772 435.792 2.3772 440.33 6.92822C443.162 9.76915 446.902 11.3413 450.89 11.3413C454.877 11.3413 458.645 9.76915 461.45 6.92822C463.65 4.72166 466.565 3.50806 469.672 3.50806C472.78 3.50806 475.695 4.72166 477.895 6.92822C480.727 9.76915 484.467 11.3413 488.455 11.3413C492.442 11.3413 496.21 9.76915 499.015 6.92822C503.552 2.3772 510.922 2.3772 515.46 6.92822C518.65 10.1277 523.077 11.6999 527.587 11.231L527.835 11.2034V7.83842L527.532 7.866C524.095 8.36247 520.547 7.14887 517.99 4.58376Z" fill="#111111"/>
</svg>
