<svg width="137" height="21" viewBox="0 0 137 21" fill="none" xmlns="http://www.w3.org/2000/svg">
<path d="M60.4344 14.2661C62.1567 14.2661 63.5529 12.8781 63.5529 11.1659C63.5529 9.45367 62.1567 8.06564 60.4344 8.06564C58.7121 8.06564 57.3159 9.45367 57.3159 11.1659C57.3159 12.8781 58.7121 14.2661 60.4344 14.2661Z" fill="#F37128"/>
<path d="M134.883 15.9609L130.871 10.0291L126.879 4.05597C125.528 2.03048 123.262 0.831726 120.829 0.831726C118.397 0.831726 116.131 2.03048 114.779 4.05597L106.796 15.9609C106.214 16.829 105.258 17.3457 104.197 17.3457C103.137 17.3457 102.181 16.8496 101.599 15.9609L97.2535 9.47106L93.636 4.05597C92.2846 2.03048 90.0185 0.831726 87.5861 0.831726C86.8169 0.831726 86.0684 0.955735 85.3616 1.18309C85.3408 1.18309 85.32 1.20376 85.2992 1.20376C85.1953 1.24509 85.0705 1.28643 84.9666 1.32776C83.5736 1.86514 82.3678 2.79521 81.5154 4.07664L72.8876 16.0642C72.3054 16.8703 71.3491 17.3663 70.3512 17.3663H68.7711C70.0809 15.6302 70.8501 13.5014 70.8501 11.1659C70.8501 5.46142 66.1932 0.831726 60.4551 0.831726C54.7171 0.831726 50.0601 5.46142 50.0601 11.1659C50.0601 13.4807 50.8293 15.6302 52.1391 17.3663H50.6422C49.6443 17.3663 48.688 16.891 48.1059 16.0642L39.4572 4.03531C38.1059 2.03049 35.8397 0.852392 33.4281 0.852392C30.9957 0.852392 28.7295 2.05115 27.3782 4.07664L25.1329 7.44557L22.846 4.05597C21.4946 2.03048 19.2285 0.831726 16.7961 0.831726C14.3636 0.831726 12.0975 2.03048 10.7462 4.05597L2.76282 15.9609C2.18069 16.829 1.22435 17.3457 0.164062 17.3457V21.4793C2.59649 21.4793 4.86261 20.2806 6.21396 18.2551L14.1973 6.35015C14.7794 5.48209 15.7358 4.96538 16.7961 4.96538C17.8564 4.96538 18.8127 5.46142 19.3948 6.35015L23.0539 11.7859V16.2709C23.0539 17.9244 23.6984 19.4745 24.8626 20.6526L25.715 21.5L28.6672 18.5858L27.8148 17.7384C27.4198 17.3457 27.2119 16.829 27.2119 16.2709V11.7859L30.8501 6.35015C31.4323 5.48209 32.3886 4.96538 33.4489 4.96538C34.5092 4.96538 35.4655 5.46142 36.0476 6.35015L44.7587 18.4618C46.1308 20.3632 48.3345 21.4793 50.6838 21.4793H59.3325H60.268C60.3304 21.4793 60.4135 21.4793 60.4759 21.4793C60.5383 21.4793 60.6214 21.4793 60.6838 21.4793H61.7233H70.372C72.7212 21.4793 74.925 20.3426 76.2971 18.4618L84.9666 6.41216L85.0081 6.35015C85.3824 5.81278 85.8813 5.39941 86.4634 5.17206C86.8169 5.04805 87.1911 4.96538 87.5861 4.96538C88.6464 4.96538 89.6027 5.46142 90.1849 6.35015L93.8231 11.7652L94.1765 12.3026L98.1682 18.2551C99.5196 20.2806 101.786 21.4793 104.218 21.4793C106.651 21.4793 108.917 20.2806 110.268 18.2551L118.251 6.35015C118.834 5.48209 119.79 4.96538 120.85 4.96538C121.91 4.96538 122.867 5.46142 123.449 6.35015L127.461 12.3233L131.474 18.2551C132.763 20.1979 135.029 21.4173 137.378 21.438L137.42 17.3043C136.588 17.3043 135.507 16.891 134.883 15.9609ZM60.4343 4.96538C63.8647 4.96538 66.6713 7.7556 66.6713 11.1659C66.6713 14.5141 63.9894 17.263 60.6422 17.3663H60.2264C56.8792 17.263 54.1973 14.5141 54.1973 11.1659C54.1973 7.7556 57.004 4.96538 60.4343 4.96538Z" fill="#12919C"/>
</svg>
