<svg width="262" height="5" viewBox="0 0 262 5" fill="none" xmlns="http://www.w3.org/2000/svg">
<path d="M257.113 1.97531C254.219 -0.641975 249.51 -0.641975 246.616 1.97531C245.524 2.96296 244.077 3.50617 242.535 3.50617C240.992 3.50617 239.546 2.96296 238.454 1.97531C237.048 0.703704 235.191 0 233.212 0C231.233 0 229.363 0.703704 227.97 1.97531C226.878 2.96296 225.431 3.50617 223.889 3.50617C222.346 3.50617 220.9 2.96296 219.808 1.97531C216.914 -0.641975 212.204 -0.641975 209.311 1.97531C208.219 2.96296 206.772 3.50617 205.229 3.50617C203.687 3.50617 202.24 2.96296 201.148 1.97531C198.254 -0.641975 193.545 -0.641975 190.651 1.97531C189.559 2.96296 188.112 3.50617 186.57 3.50617C185.027 3.50617 183.58 2.96296 182.488 1.97531C179.594 -0.641975 174.885 -0.641975 171.991 1.97531C170.899 2.96296 169.452 3.50617 167.91 3.50617C166.367 3.50617 164.92 2.96296 163.828 1.97531C160.935 -0.641975 156.225 -0.641975 153.332 1.97531C152.24 2.96296 150.793 3.50617 149.25 3.50617C147.708 3.50617 146.261 2.96296 145.169 1.97531C143.763 0.703704 141.906 0 139.927 0C137.948 0 136.091 0.703704 134.686 1.97531C133.594 2.96296 132.147 3.50617 130.604 3.50617C129.062 3.50617 127.615 2.96296 126.523 1.97531C123.629 -0.654321 118.92 -0.654321 116.026 1.97531C114.934 2.96296 113.487 3.50617 111.944 3.50617C110.402 3.50617 108.955 2.96296 107.863 1.97531C104.969 -0.654321 100.274 -0.654321 97.3798 1.97531C96.2878 2.96296 94.8409 3.50617 93.2984 3.50617C91.756 3.50617 90.3091 2.96296 89.217 1.97531C86.3232 -0.641975 81.6139 -0.641975 78.7201 1.97531C77.6281 2.96296 76.1812 3.50617 74.6387 3.50617C73.0963 3.50617 71.6494 2.96296 70.5574 1.97531C67.6635 -0.654321 62.9543 -0.654321 60.0604 1.97531C58.9684 2.96296 57.5215 3.50617 55.9791 3.50617C54.4366 3.50617 52.9897 2.96296 51.8977 1.97531C49.0039 -0.654321 44.2946 -0.654321 41.4144 1.97531C40.3224 2.96296 38.8755 3.50617 37.333 3.50617C35.7906 3.50617 34.3436 2.96296 33.2516 1.97531C30.3578 -0.641975 25.6485 -0.641975 22.7547 1.97531C21.6627 2.96296 20.2158 3.50617 18.6733 3.50617C17.1309 3.50617 15.684 2.96296 14.592 1.97531C11.6981 -0.654321 6.98885 -0.654321 4.09503 1.97531C3.03032 2.93827 1.62436 3.48148 0.136501 3.50617H0V5H0.136501C2.07482 4.97531 3.89028 4.27161 5.25529 3.03704C7.50755 0.987654 11.1794 0.987654 13.418 3.02469C14.824 4.2963 16.6804 5 18.6597 5C20.6389 5 22.509 4.2963 23.9013 3.02469C26.1672 0.987654 29.8255 0.987654 32.0777 3.02469C33.4837 4.2963 35.3401 5 37.3194 5C39.2986 5 41.1687 4.2963 42.561 3.02469C43.653 2.03704 45.0999 1.49383 46.6424 1.49383C48.1848 1.49383 49.6318 2.03704 50.7238 3.02469C52.1297 4.2963 53.9861 5 55.9654 5C57.9447 5 59.8147 4.2963 61.207 3.02469C63.473 0.987654 67.1448 0.987654 69.3971 3.02469C70.8031 4.2963 72.6595 5 74.6387 5C76.618 5 78.4881 4.2963 79.8804 3.02469C82.1326 0.987654 85.7909 0.987654 88.0431 3.02469C89.4491 4.2963 91.3055 5 93.2848 5C95.264 5 97.1341 4.2963 98.5264 3.02469C100.779 0.987654 104.437 0.987654 106.689 3.02469C108.095 4.2963 109.952 5 111.931 5C113.91 5 115.78 4.2963 117.172 3.02469C119.425 0.987654 123.083 0.987654 125.335 3.02469C126.741 4.2963 128.598 5 130.577 5C132.556 5 134.426 4.2963 135.818 3.02469C136.91 2.03704 138.357 1.49383 139.9 1.49383C141.442 1.49383 142.889 2.03704 143.981 3.02469C145.387 4.2963 147.244 5 149.223 5C151.202 5 153.072 4.2963 154.465 3.02469C156.717 0.987654 160.375 0.987654 162.627 3.02469C164.033 4.2963 165.89 5 167.869 5C169.848 5 171.718 4.2963 173.111 3.02469C175.363 0.987654 179.021 0.987654 181.273 3.02469C182.679 4.2963 184.536 5 186.515 5C188.494 5 190.364 4.2963 191.757 3.02469C194.009 0.987654 197.667 0.987654 199.919 3.02469C201.325 4.2963 203.182 5 205.161 5C207.14 5 209.01 4.2963 210.403 3.02469C212.655 0.987654 216.313 0.987654 218.565 3.02469C219.971 4.2963 221.828 5 223.807 5C225.786 5 227.656 4.2963 229.049 3.02469C230.141 2.03704 231.588 1.49383 233.13 1.49383C234.673 1.49383 236.119 2.03704 237.211 3.02469C238.617 4.2963 240.474 5 242.453 5C244.432 5 246.302 4.2963 247.695 3.02469C249.947 0.987654 253.605 0.987654 255.857 3.02469C257.441 4.45679 259.639 5.16049 261.877 4.95062L262 4.93827V3.4321L261.85 3.44444C260.144 3.66667 258.383 3.12346 257.113 1.97531Z" fill="#12919C"/>
</svg>
