<svg width="279" height="12" viewBox="0 0 279 12" fill="none" xmlns="http://www.w3.org/2000/svg">
<path d="M67.5041 11.4343C63.3674 11.4343 61.2224 9.16179 59.486 7.33387C57.8007 5.55536 56.7282 4.51789 54.4812 4.51789C52.2341 4.51789 51.1616 5.55536 49.4763 7.33387C47.7399 9.16179 45.595 11.4343 41.4583 11.4343C37.3216 11.4343 35.1766 9.16179 33.4403 7.33387C31.7549 5.55536 30.6825 4.51789 28.4354 4.51789C26.1883 4.51789 25.1158 5.55536 23.4305 7.33387C21.6941 9.16179 19.6002 11.4343 15.4125 11.4343C11.2758 11.4343 9.13086 9.16179 7.39447 7.33387C5.86237 5.55536 4.78989 4.51789 2.54281 4.51789C1.41926 4.51789 0.5 3.62864 0.5 2.54177C0.5 1.4549 1.41926 0.565643 2.54281 0.565643C6.67949 0.565643 8.82444 2.83819 10.5608 4.6661C12.2461 6.44461 13.3186 7.48208 15.5657 7.48208C17.8128 7.48208 18.8853 6.44461 20.5706 4.6661C22.307 2.83819 24.4519 0.565643 28.5886 0.565643C32.7253 0.565643 34.8702 2.83819 36.6066 4.6661C38.2919 6.44461 39.3644 7.48208 41.6115 7.48208C43.8586 7.48208 44.931 6.44461 46.6164 4.6661C48.3527 2.83819 50.4977 0.565643 54.6344 0.565643C58.7711 0.565643 60.916 2.83819 62.6524 4.6661C64.3377 6.44461 65.4102 7.48208 67.6573 7.48208C68.7808 7.48208 69.7001 8.37134 69.7001 9.45821C69.7001 10.5451 68.6276 11.4343 67.5041 11.4343Z" fill="#12919C"/>
<path d="M119.711 11.4343C115.574 11.4343 113.429 9.16179 111.693 7.33387C110.007 5.55536 108.935 4.51789 106.688 4.51789C104.441 4.51789 103.368 5.55536 101.683 7.33387C99.9465 9.16179 97.8015 11.4343 93.6648 11.4343C89.5281 11.4343 87.3832 9.16179 85.6468 7.33387C83.9615 5.55536 82.889 4.51789 80.6419 4.51789C78.3949 4.51789 77.3224 5.55536 75.6371 7.33387C73.9007 9.16179 71.8068 11.4343 67.619 11.4343C63.4824 11.4343 61.3374 9.16179 59.601 7.33387C58.0689 5.55536 56.9965 4.51789 54.7494 4.51789C53.6258 4.51789 52.7066 3.62864 52.7066 2.54177C52.7066 1.4549 53.6258 0.565643 54.7494 0.565643C58.886 0.565643 61.031 2.83819 62.7674 4.6661C64.4527 6.44461 65.5252 7.48208 67.7723 7.48208C70.0193 7.48208 71.0918 6.44461 72.7771 4.6661C74.5135 2.83819 76.6585 0.565643 80.7951 0.565643C84.9318 0.565643 87.0768 2.83819 88.8132 4.6661C90.4985 6.44461 91.571 7.48208 93.818 7.48208C96.0651 7.48208 97.1376 6.44461 98.8229 4.6661C100.559 2.83819 102.704 0.565643 106.841 0.565643C110.978 0.565643 113.123 2.83819 114.859 4.6661C116.544 6.44461 117.617 7.48208 119.864 7.48208C120.987 7.48208 121.907 8.37134 121.907 9.45821C121.907 10.5451 120.834 11.4343 119.711 11.4343Z" fill="#12919C"/>
<path d="M223.741 11.4343C219.605 11.4343 217.46 9.16179 215.723 7.33387C214.038 5.55536 212.966 4.51789 210.718 4.51789C208.471 4.51789 207.399 5.55536 205.714 7.33387C203.977 9.16179 201.832 11.4343 197.696 11.4343C193.559 11.4343 191.414 9.16179 189.678 7.33387C187.992 5.55536 186.92 4.51789 184.673 4.51789C182.426 4.51789 181.353 5.55536 179.668 7.33387C177.931 9.16179 175.838 11.4343 171.65 11.4343C167.513 11.4343 165.368 9.16179 163.632 7.33387C162.1 5.55536 161.027 4.51789 158.78 4.51789C157.657 4.51789 156.737 3.62864 156.737 2.54177C156.737 1.4549 157.657 0.565643 158.78 0.565643C162.917 0.565643 165.062 2.83819 166.798 4.6661C168.483 6.44461 169.556 7.48208 171.803 7.48208C174.05 7.48208 175.123 6.44461 176.808 4.6661C178.544 2.83819 180.689 0.565643 184.826 0.565643C188.963 0.565643 191.108 2.83819 192.844 4.6661C194.529 6.44461 195.602 7.48208 197.849 7.48208C200.096 7.48208 201.168 6.44461 202.854 4.6661C204.59 2.83819 206.735 0.565643 210.872 0.565643C215.008 0.565643 217.153 2.83819 218.89 4.6661C220.575 6.44461 221.647 7.48208 223.895 7.48208C225.018 7.48208 225.937 8.37134 225.937 9.45821C225.937 10.5451 224.865 11.4343 223.741 11.4343Z" fill="#12919C"/>
<path d="M275.948 11.4343C271.811 11.4343 269.666 9.16179 267.93 7.33387C266.245 5.55536 265.172 4.51789 262.925 4.51789C260.678 4.51789 259.605 5.55536 257.92 7.33387C256.184 9.16179 254.039 11.4343 249.902 11.4343C245.765 11.4343 243.62 9.16179 241.884 7.33387C240.199 5.55536 239.126 4.51789 236.879 4.51789C234.632 4.51789 233.56 5.55536 231.874 7.33387C230.138 9.16179 228.044 11.4343 223.856 11.4343C219.72 11.4343 217.575 9.16179 215.838 7.33387C214.306 5.55536 213.234 4.51789 210.987 4.51789C209.863 4.51789 208.944 3.62864 208.944 2.54177C208.944 1.4549 209.863 0.565643 210.987 0.565643C215.123 0.565643 217.268 2.83819 219.005 4.6661C220.69 6.44461 221.762 7.48208 224.01 7.48208C226.257 7.48208 227.329 6.44461 229.014 4.6661C230.751 2.83819 232.896 0.565643 237.032 0.565643C241.169 0.565643 243.314 2.83819 245.05 4.6661C246.736 6.44461 247.808 7.48208 250.055 7.48208C252.302 7.48208 253.375 6.44461 255.06 4.6661C256.797 2.83819 258.942 0.565643 263.078 0.565643C267.215 0.565643 269.36 2.83819 271.096 4.6661C272.782 6.44461 273.854 7.48208 276.101 7.48208C277.225 7.48208 278.144 8.37134 278.144 9.45821C278.144 10.5451 277.071 11.4343 275.948 11.4343Z" fill="#12919C"/>
<path d="M171.917 11.4343C167.78 11.4343 165.635 9.16179 163.899 7.33387C162.214 5.55536 161.141 4.51789 158.894 4.51789C156.647 4.51789 155.575 5.55536 153.889 7.33387C152.153 9.16179 150.008 11.4343 145.871 11.4343C141.735 11.4343 139.59 9.16179 137.853 7.33387C136.168 5.55536 135.096 4.51789 132.848 4.51789C130.601 4.51789 129.529 5.55536 127.844 7.33387C126.107 9.16179 124.013 11.4343 119.826 11.4343C115.689 11.4343 113.544 9.16179 111.808 7.33387C110.275 5.55536 109.203 4.51789 106.956 4.51789C105.832 4.51789 104.913 3.62864 104.913 2.54177C104.913 1.4549 105.832 0.565643 106.956 0.565643C111.093 0.565643 113.238 2.83819 114.974 4.6661C116.659 6.44461 117.732 7.48208 119.979 7.48208C122.226 7.48208 123.298 6.44461 124.984 4.6661C126.72 2.83819 128.865 0.565643 133.002 0.565643C137.138 0.565643 139.283 2.83819 141.02 4.6661C142.705 6.44461 143.777 7.48208 146.025 7.48208C148.272 7.48208 149.344 6.44461 151.029 4.6661C152.766 2.83819 154.911 0.565643 159.047 0.565643C163.184 0.565643 165.329 2.83819 167.065 4.6661C168.751 6.44461 169.823 7.48208 172.07 7.48208C173.194 7.48208 174.113 8.37134 174.113 9.45821C174.113 10.5451 173.041 11.4343 171.917 11.4343Z" fill="#12919C"/>
<path d="M224.124 11.4343C219.987 11.4343 217.842 9.16179 216.106 7.33387C214.42 5.55536 213.348 4.51789 211.101 4.51789C208.854 4.51789 207.781 5.55536 206.096 7.33387C204.36 9.16179 202.215 11.4343 198.078 11.4343C193.941 11.4343 191.796 9.16179 190.06 7.33387C188.375 5.55536 187.302 4.51789 185.055 4.51789C182.808 4.51789 181.735 5.55536 180.05 7.33387C178.314 9.16179 176.22 11.4343 172.032 11.4343C167.895 11.4343 165.75 9.16179 164.014 7.33387C162.482 5.55536 161.41 4.51789 159.162 4.51789C158.039 4.51789 157.12 3.62864 157.12 2.54177C157.12 1.4549 158.039 0.565643 159.162 0.565643C163.299 0.565643 165.444 2.83819 167.18 4.6661C168.866 6.44461 169.938 7.48208 172.185 7.48208C174.432 7.48208 175.505 6.44461 177.19 4.6661C178.927 2.83819 181.072 0.565643 185.208 0.565643C189.345 0.565643 191.49 2.83819 193.226 4.6661C194.912 6.44461 195.984 7.48208 198.231 7.48208C200.478 7.48208 201.551 6.44461 203.236 4.6661C204.972 2.83819 207.117 0.565643 211.254 0.565643C215.391 0.565643 217.536 2.83819 219.272 4.6661C220.957 6.44461 222.03 7.48208 224.277 7.48208C225.4 7.48208 226.32 8.37134 226.32 9.45821C226.32 10.5451 225.247 11.4343 224.124 11.4343Z" fill="#12919C"/>
</svg>
