<svg width="362" height="8" viewBox="0 0 362 8" fill="#c9c9c9" xmlns="http://www.w3.org/2000/svg">
<path d="M355.137 3.02565C351.14 -0.983336 344.635 -0.983336 340.638 3.02565C339.13 4.53847 337.131 5.37053 335.001 5.37053C332.87 5.37053 330.872 4.53847 329.363 3.02565C327.421 1.07789 324.857 0 322.123 0C319.39 0 316.807 1.07789 314.883 3.02565C313.375 4.53847 311.377 5.37053 309.246 5.37053C307.115 5.37053 305.117 4.53847 303.609 3.02565C299.612 -0.983336 293.107 -0.983336 289.11 3.02565C287.601 4.53847 285.603 5.37053 283.472 5.37053C281.342 5.37053 279.343 4.53847 277.835 3.02565C273.838 -0.983336 267.333 -0.983336 263.336 3.02565C261.828 4.53847 259.829 5.37053 257.699 5.37053C255.568 5.37053 253.57 4.53847 252.061 3.02565C248.064 -0.983336 241.56 -0.983336 237.562 3.02565C236.054 4.53847 234.056 5.37053 231.925 5.37053C229.795 5.37053 227.796 4.53847 226.288 3.02565C222.291 -0.983336 215.786 -0.983336 211.789 3.02565C210.281 4.53847 208.282 5.37053 206.151 5.37053C204.021 5.37053 202.022 4.53847 200.514 3.02565C198.572 1.07789 196.008 0 193.274 0C190.54 0 187.976 1.07789 186.034 3.02565C184.526 4.53847 182.527 5.37053 180.397 5.37053C178.266 5.37053 176.268 4.53847 174.759 3.02565C170.762 -1.00225 164.257 -1.00225 160.26 3.02565C158.752 4.53847 156.754 5.37053 154.623 5.37053C152.492 5.37053 150.494 4.53847 148.986 3.02565C144.989 -1.00225 138.503 -1.00225 134.506 3.02565C132.997 4.53847 130.999 5.37053 128.868 5.37053C126.738 5.37053 124.739 4.53847 123.231 3.02565C119.234 -0.983336 112.729 -0.983336 108.732 3.02565C107.224 4.53847 105.225 5.37053 103.095 5.37053C100.964 5.37053 98.9655 4.53847 97.4572 3.02565C93.4601 -1.00225 86.9554 -1.00225 82.9583 3.02565C81.45 4.53847 79.4515 5.37053 77.3209 5.37053C75.1904 5.37053 73.1919 4.53847 71.6835 3.02565C67.6865 -1.00225 61.1818 -1.00225 57.2035 3.02565C55.6952 4.53847 53.6967 5.37053 51.5661 5.37053C49.4356 5.37053 47.4371 4.53847 45.9287 3.02565C41.9317 -0.983336 35.427 -0.983336 31.4299 3.02565C29.9216 4.53847 27.923 5.37053 25.7925 5.37053C23.662 5.37053 21.6634 4.53847 20.1551 3.02565C16.158 -1.00225 9.65333 -1.00225 5.65625 3.02565C4.18562 4.50065 2.24365 5.33271 0.188542 5.37053H0V7.65867H0.188542C2.86583 7.62085 5.37344 6.54297 7.25885 4.65194C10.3698 1.51282 15.4416 1.51282 18.5336 4.63303C20.4756 6.58079 23.0398 7.65867 25.7736 7.65867C28.5075 7.65867 31.0905 6.58079 33.0136 4.63303C36.1434 1.51282 41.1964 1.51282 44.3073 4.63303C46.2493 6.58079 48.8134 7.65867 51.5473 7.65867C54.2811 7.65867 56.8642 6.58079 58.7873 4.63303C60.2956 3.1202 62.2942 2.28815 64.4247 2.28815C66.5552 2.28815 68.5537 3.1202 70.0621 4.63303C72.0041 6.58079 74.5682 7.65867 77.3021 7.65867C80.0359 7.65867 82.6189 6.58079 84.5421 4.63303C87.6719 1.51282 92.7436 1.51282 95.8546 4.63303C97.7966 6.58079 100.361 7.65867 103.095 7.65867C105.828 7.65867 108.411 6.58079 110.335 4.63303C113.446 1.51282 118.498 1.51282 121.609 4.63303C123.551 6.58079 126.116 7.65867 128.849 7.65867C131.583 7.65867 134.166 6.58079 136.089 4.63303C139.2 1.51282 144.253 1.51282 147.364 4.63303C149.306 6.58079 151.87 7.65867 154.604 7.65867C157.338 7.65867 159.921 6.58079 161.844 4.63303C164.955 1.51282 170.008 1.51282 173.119 4.63303C175.061 6.58079 177.625 7.65867 180.359 7.65867C183.093 7.65867 185.676 6.58079 187.599 4.63303C189.107 3.1202 191.106 2.28815 193.236 2.28815C195.367 2.28815 197.365 3.1202 198.874 4.63303C200.816 6.58079 203.38 7.65867 206.114 7.65867C208.848 7.65867 211.431 6.58079 213.354 4.63303C216.465 1.51282 221.518 1.51282 224.629 4.63303C226.571 6.58079 229.135 7.65867 231.869 7.65867C234.602 7.65867 237.185 6.58079 239.109 4.63303C242.219 1.51282 247.272 1.51282 250.383 4.63303C252.325 6.58079 254.889 7.65867 257.623 7.65867C260.357 7.65867 262.94 6.58079 264.863 4.63303C267.974 1.51282 273.027 1.51282 276.138 4.63303C278.08 6.58079 280.644 7.65867 283.378 7.65867C286.112 7.65867 288.695 6.58079 290.618 4.63303C293.729 1.51282 298.782 1.51282 301.893 4.63303C303.835 6.58079 306.399 7.65867 309.133 7.65867C311.867 7.65867 314.45 6.58079 316.373 4.63303C317.881 3.1202 319.88 2.28815 322.01 2.28815C324.141 2.28815 326.139 3.1202 327.648 4.63303C329.59 6.58079 332.154 7.65867 334.888 7.65867C337.622 7.65867 340.205 6.58079 342.128 4.63303C345.239 1.51282 350.292 1.51282 353.402 4.63303C355.59 6.82662 358.625 7.90451 361.717 7.58303L361.887 7.56412V5.25707L361.679 5.27598C359.323 5.61636 356.89 4.78431 355.137 3.02565Z" />
</svg>
